# xmcd
# 
# Track frame offsets:
#     150
#     18397
#     32497
#     49579
#     67509
#     80472
#     97904
#     109858
#     130061
#     144029
#     164355
#     181687
#     213529
#     231292
#     246957
#     265028
#     287973
#     306226
# 
# Disc length: 4238
# 
# Revision: 1
# Processed by: cddbd v1.5.2PL0 Copyright (c) Steve Scherf et al.
# Submitted via: fre:ac v1.0.17
# 
DISCID=e8108c12
DTITLE=Various Artist - Greatest Hits Vol. 2
DYEAR=2011
DGENRE=Country
TTITLE0=Alan Jackson - Drive
TTITLE1=Alan Jackson - Everything I Love
TTITLE2=Alan Jackson - Gone Crazy
TTITLE3=Alan Jackson - I'll Go On Loving You
TTITLE4=Alan Jackson - It Must Be Love
TTITLE5=Alan Jackson - It's five O'clock Somewhere
TTITLE6=Alan Jackson - Little Bitty
TTITLE7=Alan Jackson - Little Man
TTITLE8=Alan Jackson - Pop A Top
TTITLE9=Alan Jackson - Remember When
TTITLE10=Alan Jackson - Right On The Money
TTITLE11=Alan Jackson - The Blues Man
TTITLE12=Alan Jackson - There's Goes
TTITLE13=Alan Jackson - When Somebody Loves You
TTITLE14=Alan Jackson - Where I Come From
TTITLE15=Alan Jackson - Where Were You 
TTITLE16=Alan Jackson - Who's Cheating Who?
TTITLE17=Alan Jackson - Memory
EXTD=
EXTT0=
EXTT1=
EXTT2=
EXTT3=
EXTT4=
EXTT5=
EXTT6=
EXTT7=
EXTT8=
EXTT9=
EXTT10=
EXTT11=
EXTT12=
EXTT13=
EXTT14=
EXTT15=
EXTT16=
EXTT17=
PLAYORDER=
